<?xml version="1.0" encoding="UTF-8"?>
<svg version="1.1" xmlns="http://www.w3.org/2000/svg" width="60" height="60">
<path d="M0 0 C5.28 0 10.56 0 16 0 C17.33333333 6.66666667 18.66666667 13.33333333 20 20 C20.99 13.4 21.98 6.8 23 0 C28.28 0 33.56 0 39 0 C39 16.17 39 32.34 39 49 C35.7 49 32.4 49 29 49 C28.67 43.06 28.34 37.12 28 31 C27.01 36.94 26.02 42.88 25 49 C21.7 49 18.4 49 15 49 C13.68 42.07 12.36 35.14 11 28 C10.67 34.93 10.34 41.86 10 49 C6.7 49 3.4 49 0 49 C0 32.83 0 16.66 0 0 Z " fill="#000000" transform="translate(4,6)"/>
<path d="M0 0 C1.9375 1.5625 1.9375 1.5625 3 4 C2.9375 7.625 2.9375 7.625 2 11 C-0.31218598 12.98187369 -1.54196984 13.02234293 -4.5625 12.875 C-7.6231925 11.77628987 -8.57765784 10.92370334 -10 8 C-9.875 4.875 -9.875 4.875 -9 2 C-5.52957297 -0.31361802 -4.08165827 -0.51020728 0 0 Z " fill="#000000" transform="translate(54,43)"/>
</svg>
