<?xml version="1.0" encoding="UTF-8"?>
<svg version="1.1" xmlns="http://www.w3.org/2000/svg" width="150" height="60">
<path d="M0 0 C5.28 0 10.56 0 16 0 C17.95033158 7.9406357 18.977783 15.8952795 20 24 C21.32 16.08 22.64 8.16 24 0 C29.61 0 35.22 0 41 0 C41 17.49 41 34.98 41 53 C37.37 53 33.74 53 30 53 C29.505 43.595 29.505 43.595 29 34 C28.05329654 39.87807478 28.05329654 39.87807478 27.11547852 45.75756836 C26.99615967 46.48596924 26.87684082 47.21437012 26.75390625 47.96484375 C26.63345947 48.7137085 26.5130127 49.46257324 26.38891602 50.23413086 C26 52 26 52 25 53 C21.7 53 18.4 53 15 53 C13.68 45.74 12.36 38.48 11 31 C10.67 38.26 10.34 45.52 10 53 C6.7 53 3.4 53 0 53 C0 35.51 0 18.02 0 0 Z " fill="#EEEEEE" transform="translate(6,3)"/>
<path d="M0 0 C3.96 0 7.92 0 12 0 C12.33 4.95 12.66 9.9 13 15 C13.99 12.69 14.98 10.38 16 8 C19.96 8 23.92 8 28 8 C25 18 25 18 24.09106445 20.12158203 C21.05284109 27.95319983 23.00154205 33.46280085 25.8125 41.125 C26.20759766 42.27226563 26.60269531 43.41953125 27.00976562 44.6015625 C27.98101327 47.40998943 28.98703496 50.20634905 30 53 C25.71 53 21.42 53 17 53 C15.68 48.71 14.36 44.42 13 40 C12.67 44.29 12.34 48.58 12 53 C8.04 53 4.08 53 0 53 C0 35.51 0 18.02 0 0 Z " fill="#EBEBEB" transform="translate(98,3)"/>
<path d="M0 0 C3.0547924 4.20033955 2.62993629 8.48429636 2.59765625 13.44921875 C2.5962413 14.26622757 2.59482635 15.08323639 2.59336853 15.92500305 C2.58777294 18.53337268 2.57522129 21.14165634 2.5625 23.75 C2.55748443 25.51887897 2.55292162 27.28775928 2.54882812 29.05664062 C2.53780496 33.39196019 2.52054338 37.72721552 2.5 42.0625 C-2.16666667 42.0625 -6.83333333 42.0625 -11.5 42.0625 C-12.17933594 42.09730469 -12.85867187 42.13210937 -13.55859375 42.16796875 C-14.34363281 42.19503906 -15.12867188 42.22210938 -15.9375 42.25 C-16.71996094 42.28480469 -17.50242187 42.31960937 -18.30859375 42.35546875 C-20.5 42.0625 -20.5 42.0625 -22.22265625 40.73828125 C-24.93803171 37.17590794 -24.69529281 33.50025036 -24.75 29.1875 C-24.77578125 27.97320312 -24.8015625 26.75890625 -24.828125 25.5078125 C-24.47130518 21.76120438 -23.84226641 19.979969 -21.5 17.0625 C-19.34375 15.69921875 -19.34375 15.69921875 -17 14.75 C-15.83984375 14.26080078 -15.83984375 14.26080078 -14.65625 13.76171875 C-12.5 13.0625 -12.5 13.0625 -9.5 13.0625 C-9.5 10.7525 -9.5 8.4425 -9.5 6.0625 C-10.49 6.0625 -11.48 6.0625 -12.5 6.0625 C-12.5 7.7125 -12.5 9.3625 -12.5 11.0625 C-16.46 11.0625 -20.42 11.0625 -24.5 11.0625 C-24.01813472 2.87079016 -24.01813472 2.87079016 -21.9375 -0.375 C-14.94971071 -4.85435211 -6.67569366 -5.17366259 0 0 Z M-10.5 19.0625 C-12.80060534 20.9253949 -12.80060534 20.9253949 -12.6953125 23.8828125 C-12.67210937 24.97335938 -12.64890625 26.06390625 -12.625 27.1875 C-12.60695313 28.28320312 -12.58890625 29.37890625 -12.5703125 30.5078125 C-12.54710937 31.35085937 -12.52390625 32.19390625 -12.5 33.0625 C-11.51 33.0625 -10.52 33.0625 -9.5 33.0625 C-9.5 28.4425 -9.5 23.8225 -9.5 19.0625 C-9.83 19.0625 -10.16 19.0625 -10.5 19.0625 Z " fill="#ECECEC" transform="translate(73.5,13.9375)"/>
<path d="M0 0 C0 3.3 0 6.6 0 10 C-1.98 10.66 -3.96 11.32 -6 12 C-6.33 23.22 -6.66 34.44 -7 46 C-10.96 46 -14.92 46 -19 46 C-19 31.15 -19 16.3 -19 1 C-14.33333333 1 -9.66666667 1 -5 1 C-0.875 0 -0.875 0 0 0 Z " fill="#E9E9E9" transform="translate(97,10)"/>
<path d="M0 0 C3.375 0.875 3.375 0.875 5.375 2.875 C5.94642857 8.01785714 5.94642857 8.01785714 5.375 10.875 C3.1875 12.9375 3.1875 12.9375 0.375 13.875 C-2.47440381 13.7393141 -4.06137488 13.24427163 -6.4375 11.6875 C-8.23472017 8.94437448 -8.08274125 7.07918874 -7.625 3.875 C-5.30290294 0.25252859 -4.34513693 -0.14983231 0 0 Z " fill="#E6E6E6" transform="translate(138.625,44.125)"/>
</svg>
